# xmcd CD database file
#
# Track frame offsets:
#	187
#	16582
#	30127
#	47110
#	60197
#	82410
#	96760
#	112437
#	129135
#	142200
#
# Disc length: 2197 seconds
#
# Revision: 0
# Processed by: cddbd v1.5.1PL0 Copyright (c) Steve Scherf et al.
# Submitted via: CDex 1.50
#
DISCID=7e08930a
DTITLE=Don Randi - Last Night
DYEAR=1962
DGENRE=Jazz
TTITLE0=Lori Ellen
TTITLE1=Raisins and Almonds
TTITLE2=Tahitian Lullaby
TTITLE3=Sherry Blue
TTITLE4=Softly as in a morning sunrise
TTITLE5=Honeysuckle Rose
TTITLE6=Surf Song
TTITLE7=Makin' whoopee
TTITLE8=God rest ye merry, gentlemen
TTITLE9=Dyyanu
EXTD=YEAR: 1962
EXTT0=
EXTT1=
EXTT2=
EXTT3=
EXTT4=
EXTT5=
EXTT6=
EXTT7=
EXTT8=
EXTT9=
PLAYORDER=
